<svg width="240" height="93" viewBox="0 0 240 93" fill="none" xmlns="http://www.w3.org/2000/svg">
<g clipPath="url(#clip0_3031_32057)">
<g clipPath="url(#clip1_3031_32057)">
<path d="M59.2341 41.5655C58.6254 37.1483 56.7106 33.0138 53.7356 29.6925C50.7606 26.3711 46.861 24.0145 42.5372 22.925C35.7765 21.2021 28.6917 21.2021 21.931 22.925C15.7558 24.5163 10.177 27.8697 5.87459 32.5766C3.17768 35.3563 1.265 38.8007 0.331035 42.5594C-0.721038 48.2901 0.32146 54.208 3.26846 59.2342C5.37374 62.3879 8.22022 64.9772 11.5585 66.7753C14.8969 68.5735 18.6252 69.5256 22.4169 69.5483C29.9482 69.8134 43.5089 65.5287 46.9543 63.6514C57.7543 57.7766 60.2059 48.9422 59.2341 41.5655Z" fill="#FFC1B4"/>
<path d="M35.335 71.9138C52.6503 58.861 48.0786 47.6414 46.7755 46.1174C45.1632 44.2401 40.5031 48.569 38.3166 52.4561C37.0018 54.9666 36.7242 57.8928 37.5436 60.6058C38.1021 62.5304 38.193 64.5605 37.8089 66.5273C37.4247 68.4941 36.5766 70.3408 35.335 71.9138ZM35.335 71.9138C26.1252 79.9972 28.0908 88.8536 28.0908 88.8536C28.0908 88.8536 26.0589 83.2659 27.5828 79.3567C27.5828 79.3567 29.7914 69.2193 20.8246 64.8684C19.0527 63.9545 17.1294 63.3708 15.1485 63.1457C5.1215 60.5616 4.41475 54.5763 4.10555 53.0082C3.77963 51.1781 3.02254 49.452 1.89696 47.9726C-0.024516 45.7641 1.89696 46.0291 1.89696 46.0291C4.94536 45.9834 7.96489 46.6251 10.7313 47.9064C17.0037 50.9984 16.4295 58.0217 16.4516 58.6401C16.4516 60.4733 16.7387 62.461 21.9289 65.5751C29.8798 70.3236 27.3178 79.9089 27.3178 79.9089C27.3178 79.9089 25.6614 84.1493 28.9522 91.2389C28.9522 91.2389 25.2859 84.1273 27.8258 78.5837C29.5982 75.5367 30.2762 71.9755 29.7473 68.4904C29.1509 62.6156 27.1853 62.5052 29.0184 55.4598C30.2128 51.096 30.3792 46.5146 29.5043 42.0757C29.2614 40.3309 28.2233 35.1187 30.1669 32.6892C30.5009 32.2753 30.9433 31.9623 31.4448 31.7852C31.9463 31.608 32.4871 31.5736 33.007 31.6859C33.5269 31.7981 34.0054 32.0525 34.3892 32.4207C34.7729 32.789 35.0468 33.2566 35.1804 33.7714C35.6663 35.2733 38.8687 41.6782 42.2258 42.0757C43.2703 42.1919 44.3251 41.9827 45.2462 41.4767C46.1673 40.9707 46.9097 40.1926 47.3718 39.2487C47.6822 38.4948 48.1472 37.8144 48.7369 37.2514C49.3265 36.6883 50.0277 36.2552 50.7951 35.98C53.0037 35.207 52.8049 33.153 51.0602 32.5567C47.7395 31.7627 44.5593 30.4669 41.6295 28.7138C38.4712 26.5052 30.5865 23.899 29.3055 29.6855C28.7092 35.3395 33.4798 36.8855 35.6 33.1309C37.7203 29.3763 42.1154 29.2217 46.643 30.5911C51.1706 31.9604 54.4393 29.9285 52.3853 24.5174C51.5191 22.8296 50.9442 21.0077 50.6847 19.1285C50.6185 18.5488 50.6185 17.9634 50.6847 17.3837C50.9716 15.3308 50.5676 13.2407 49.5362 11.4426C47.8356 9.03522 43.5951 7.44504 38.6479 12.2818L38.0516 12.7677C35.3792 14.5788 34.4516 14.5567 33.8773 19.0401C33.546 20.9837 31.8013 20.542 30.8957 22.7726C30.2932 25.8478 30.0927 28.9882 30.2994 32.115C30.2994 32.115 31.9117 25.9751 36.7485 25.0033C41.5853 24.0315 39.973 21.4696 38.2062 20.5861C36.4393 20.0782 33.1043 17.4499 35.8651 15.3518C39.0896 13.5187 42.4908 10.9346 40.6577 8.35056C40.4661 7.92269 40.1897 7.53812 39.8452 7.22011C39.5007 6.90209 39.0953 6.65723 38.6535 6.50034C38.2117 6.34344 37.7427 6.27776 37.2748 6.30727C36.8069 6.33678 36.3499 6.46087 35.9313 6.67203C34.4516 7.02541 32.7289 4.46344 31.1387 2.91743C28.9301 0.929701 27.3178 3.29289 26.3902 4.24258C25.4626 5.19228 22.9669 6.18614 21.7301 7.9751C20.4933 9.76406 22.3264 11.2659 24.9105 12.2598C27.4945 13.2536 26.7878 16.8978 25.573 18.223C24.3583 19.5481 21.1559 22.8831 24.6013 24.6279C28.0467 26.3726 29.3939 28.272 28.4884 28.5371C27.5828 28.8021 25.308 26.5052 26.5006 23.3248C27.6933 20.1444 29.7473 16.3015 25.1534 14.2254C20.5595 12.1493 19.6319 7.11375 15.5019 7.59964C11.3718 8.08553 13.2491 10.4708 11.1951 13.2536C9.14113 16.0365 5.47487 16.7653 8.16935 20.1886C8.71862 20.8714 9.37499 21.4607 10.1129 21.9334C12.454 23.4352 13.1387 24.142 13.5141 25.7763C13.8896 27.4107 17.4233 30.7457 23.497 30.1935L29.9019 32.4021L23.2761 29.8622C21.7258 29.2935 20.2441 28.5526 18.8589 27.6536C16.2841 25.813 13.3359 24.5613 10.2233 23.9874C4.79021 23.2365 6.07119 26.196 6.95463 27.2561C7.80419 27.8096 8.40859 28.6684 8.64289 29.6549C8.87719 30.6415 8.72348 31.6803 8.21352 32.5567C6.62334 35.7592 7.39634 37.5481 9.11904 37.769C10.039 37.8542 10.9187 38.1866 11.6652 38.7309C12.4117 39.2752 12.9971 40.0112 13.3595 40.861C14.773 43.0696 17.6 42.9591 19.9853 41.1702C22.3706 39.3812 27.8037 35.472 28.6871 34.8315C29.5706 34.1911 30.0565 32.8217 29.0847 33.1972C28.1129 33.5726 22.3485 38.5641 21.9289 41.126C21.0675 46.3825 28.5546 46.3825 28.5546 46.3825C31.9828 46.5495 35.4058 45.9614 38.5816 44.6598C42.6233 42.5837 39.0454 38.1886 39.0454 38.1886C39.0454 38.1886 34.3853 32.8217 30.7411 32.8217" stroke="#272727" stroke-width="0.588957" stroke-linecap="round" stroke-linejoin="round"/>
</g>
<path d="M218.94 70.1031L219.576 67.0022H220.133C220.186 67.2938 220.424 67.6118 220.848 67.9563C221.272 68.3274 221.723 68.5129 222.2 68.5129C223.843 68.5129 225.009 67.9563 225.698 66.8432C226.387 65.7301 227.103 63.7158 227.845 60.8005L221.802 45.1372C221.564 44.5806 221.312 44.1831 221.047 43.9445C220.782 43.6795 220.371 43.547 219.815 43.547H219.258V42.3544H227.05V43.547H226.811C225.698 43.547 225.142 43.865 225.142 44.5011C225.142 44.6336 225.274 45.0577 225.539 45.7733L229.594 56.5865L234.047 45.3757C234.365 44.7396 234.524 44.3421 234.524 44.1831C234.524 43.9445 234.365 43.7855 234.047 43.706C233.755 43.6 233.146 43.547 232.218 43.547H231.9V42.3544H239.294V43.547H238.897C237.996 43.547 237.373 43.6795 237.028 43.9445C236.684 44.2096 236.379 44.7131 236.114 45.4552L228.084 65.5711C227.368 67.3203 226.507 68.6189 225.5 69.467C224.519 70.3151 223.18 70.7392 221.484 70.7392C220.848 70.7392 220 70.5271 218.94 70.1031Z" fill="#272727"/>
<path d="M216.247 30.1895C217.254 30.1895 218.393 30.5075 219.666 31.1436L219.347 34.7215L218.234 34.642C218.234 34.1119 217.969 33.5023 217.439 32.8133C216.909 32.1242 216.22 31.7796 215.372 31.7796C213.941 31.7796 212.867 32.482 212.152 33.8866C211.436 35.2913 211.079 37.5573 211.079 40.6847C211.079 41.7448 211.609 42.2749 212.669 42.2749H216.565V43.9445H211.158V57.9382C211.158 58.3622 211.171 58.6803 211.198 58.8923C211.251 59.0778 211.41 59.2766 211.675 59.4886C211.94 59.6741 212.351 59.7669 212.907 59.7669H214.179V60.88H205.592V59.7669H206.069C206.653 59.7669 207.077 59.6741 207.342 59.4886C207.633 59.2766 207.792 59.0778 207.819 58.8923C207.872 58.6803 207.898 58.3622 207.898 57.9382V45.3757C207.898 44.8722 207.805 44.5144 207.62 44.3023C207.434 44.0638 207.05 43.9445 206.467 43.9445H205.592V42.2749H207.898V40.5257C207.898 33.6349 210.681 30.1895 216.247 30.1895Z" fill="#272727"/>
<path d="M196.042 33.2108C196.652 33.2108 197.116 33.4096 197.434 33.8071C197.778 34.2047 197.95 34.7215 197.95 35.3576C197.95 35.9671 197.699 36.4839 197.195 36.908C196.692 37.3055 196.135 37.5043 195.525 37.5043C194.942 37.5043 194.479 37.3055 194.134 36.908C193.816 36.5104 193.657 36.0201 193.657 35.4371C193.657 34.8275 193.909 34.3107 194.412 33.8866C194.916 33.4361 195.459 33.2108 196.042 33.2108ZM200.415 60.88H192.385V59.7669H193.021C193.737 59.7669 194.187 59.6476 194.373 59.4091C194.585 59.1706 194.691 58.7863 194.691 58.2562V46.3298C194.691 45.8263 194.518 45.4685 194.174 45.2564C193.856 45.0179 193.259 44.8987 192.385 44.8987V43.7855C192.915 43.7855 193.71 43.6 194.77 43.229C195.857 42.8314 196.678 42.4604 197.235 42.1158L197.95 41.9568V58.0177C197.95 58.4417 197.964 58.7465 197.99 58.932C198.043 59.1176 198.202 59.3031 198.467 59.4886C198.732 59.6741 199.143 59.7669 199.7 59.7669H200.415V60.88Z" fill="#272727"/>
<path d="M187.292 60.88H180.374V59.7669H180.533C180.825 59.7669 181.063 59.6211 181.249 59.3296C181.461 59.038 181.567 58.6803 181.567 58.2562V48.1585C181.567 47.0984 181.302 46.2238 180.772 45.5347C180.268 44.8457 179.606 44.5011 178.784 44.5011C177.989 44.5011 177.247 44.6866 176.558 45.0577C175.895 45.4287 175.352 45.8793 174.928 46.4093C174.53 46.9394 174.173 47.496 173.855 48.079C173.324 49.1126 173.059 49.8812 173.059 50.3848V58.1767C173.059 59.2368 173.643 59.7669 174.809 59.7669H175.524V60.88H168.607V59.7669H168.845C169.084 59.7669 169.296 59.6211 169.482 59.3296C169.694 59.038 169.8 58.6803 169.8 58.2562V48.1585C169.8 47.0984 169.548 46.2238 169.044 45.5347C168.541 44.8457 167.852 44.5011 166.977 44.5011C166.129 44.5011 165.321 44.7794 164.552 45.336C163.783 45.8925 163.174 46.5418 162.723 47.2839C161.822 48.7946 161.372 49.8547 161.372 50.4643V58.0177C161.372 58.4417 161.385 58.7465 161.411 58.932C161.464 59.1176 161.623 59.3031 161.888 59.4886C162.153 59.6741 162.564 59.7669 163.121 59.7669H163.836V60.88H155.806V59.7669H156.442C157.158 59.7669 157.608 59.6476 157.794 59.4091C158.006 59.1706 158.112 58.7863 158.112 58.2562V46.3298C158.112 45.8263 157.939 45.4685 157.595 45.2564C157.277 45.0179 156.681 44.8987 155.806 44.8987V43.7855C156.336 43.7855 157.131 43.6 158.191 43.229C159.278 42.8314 160.099 42.4604 160.656 42.1158L161.372 41.9568V47.0454C162.14 45.2432 163.055 43.918 164.115 43.0699C165.201 42.2218 166.672 41.7978 168.527 41.7978C169.376 41.7978 170.118 41.9833 170.754 42.3544C171.39 42.6989 171.867 43.1627 172.185 43.7458C172.715 44.7794 173.006 45.8793 173.059 47.0454C173.669 45.2697 174.53 43.9578 175.644 43.1097C176.757 42.2351 178.254 41.7978 180.136 41.7978C181.09 41.7978 181.898 42.0098 182.561 42.4339C183.223 42.8579 183.7 43.4012 183.992 44.0638C184.496 45.2034 184.747 46.3298 184.747 47.443V58.1767C184.747 58.5477 184.774 58.826 184.827 59.0115C184.959 59.5151 185.516 59.7669 186.497 59.7669H187.292V60.88Z" fill="#272727"/>
<path d="M140.368 61.4366C138.036 61.4366 136.088 60.562 134.525 58.8128C132.961 57.0636 132.179 55.0228 132.179 52.6906C132.179 49.7222 133.292 47.1647 135.518 45.0179C137.771 42.8712 140.143 41.7978 142.634 41.7978C145.126 41.7978 147.127 42.6857 148.637 44.4614C150.175 46.2106 150.943 48.238 150.943 50.5438C150.943 53.4326 149.87 55.9769 147.723 58.1767C145.603 60.3499 143.151 61.4366 140.368 61.4366ZM134.962 50.5438C134.962 53.0086 135.704 55.0626 137.188 56.7058C138.699 58.3225 140.382 59.1308 142.237 59.1308C144.119 59.1308 145.59 58.4285 146.65 57.0238C147.71 55.6191 148.24 54.1747 148.24 52.6906C148.24 50.4378 147.538 48.4766 146.133 46.8069C144.755 45.1107 143.072 44.2626 141.084 44.2626C139.096 44.2626 137.572 44.9384 136.512 46.2901C135.479 47.6152 134.962 49.0331 134.962 50.5438Z" fill="#272727"/>
<path d="M117.378 61.4366C115.045 61.4366 113.097 60.562 111.534 58.8128C109.97 57.0636 109.188 55.0228 109.188 52.6906C109.188 49.7222 110.301 47.1647 112.527 45.0179C114.78 42.8712 117.152 41.7978 119.644 41.7978C122.135 41.7978 124.136 42.6857 125.646 44.4614C127.184 46.2106 127.952 48.238 127.952 50.5438C127.952 53.4326 126.879 55.9769 124.732 58.1767C122.612 60.3499 120.16 61.4366 117.378 61.4366ZM111.971 50.5438C111.971 53.0086 112.713 55.0626 114.197 56.7058C115.708 58.3225 117.391 59.1308 119.246 59.1308C121.128 59.1308 122.599 58.4285 123.659 57.0238C124.719 55.6191 125.249 54.1747 125.249 52.6906C125.249 50.4378 124.547 48.4766 123.142 46.8069C121.764 45.1107 120.081 44.2626 118.093 44.2626C116.105 44.2626 114.581 44.9384 113.521 46.2901C112.488 47.6152 111.971 49.0331 111.971 50.5438Z" fill="#272727"/>
<path d="M104.484 60.88H96.5334V59.7669H97.09C97.673 59.7669 98.0971 59.6476 98.3621 59.4091C98.6271 59.1441 98.7596 58.7068 98.7596 58.0972V34.642C98.7596 34.1384 98.5874 33.7806 98.2428 33.5686C97.8983 33.3301 97.302 33.2108 96.4539 33.2108V32.0977C96.9839 32.0977 97.7923 31.9519 98.8789 31.6604C99.992 31.3688 100.8 31.0641 101.304 30.746L102.02 30.587V58.0177C102.02 58.4417 102.033 58.7465 102.059 58.932C102.112 59.1176 102.271 59.3031 102.536 59.4886C102.801 59.6741 103.212 59.7669 103.769 59.7669H104.484V60.88Z" fill="#272727"/>
<path d="M75.2998 33.0518L82.1376 32.6542C85.742 32.6542 88.0345 33.5288 89.0151 35.278C89.4127 35.9936 89.6114 36.8682 89.6114 37.9018C89.6114 40.9762 88.3393 43.4145 85.795 45.2167C88.4983 45.7203 90.2475 46.7804 91.0426 48.3971C91.4136 49.1922 91.5992 50.1463 91.5992 51.2594C91.5992 53.9362 90.4728 56.2155 88.22 58.0972C85.9938 59.9524 83.3567 60.88 80.3089 60.88H69.9727V59.6874H71.3243C72.1194 59.6874 72.623 59.5416 72.835 59.2501C73.047 58.9585 73.153 58.5212 73.153 57.9382V35.9936C73.153 35.3576 73.0338 34.907 72.7952 34.642C72.5832 34.3769 72.0929 34.2444 71.3243 34.2444H69.9727V33.0518H75.2998ZM79.5933 34.801C78.5331 34.801 77.5525 34.8805 76.6514 35.0395V45.4552H81.5015C82.9592 45.4552 84.1916 44.9252 85.1987 43.865C86.2323 42.7784 86.7491 41.6123 86.7491 40.3666C86.7491 38.5644 86.0335 37.1863 84.6024 36.2322C83.1712 35.278 81.5015 34.801 79.5933 34.801ZM80.3089 47.1249H76.6514V58.4152C78.2681 58.8923 79.7788 59.1308 81.1835 59.1308C83.3037 59.1308 85.0264 58.614 86.3516 57.5804C87.6767 56.5203 88.3393 55.1023 88.3393 53.3266C88.3393 50.9679 87.4912 49.3247 85.795 48.3971C84.2843 47.549 82.4556 47.1249 80.3089 47.1249Z" fill="#272727"/>
</g>
<defs>
<clipPath id="clip0_3031_32057">
<rect width="239.632" height="92.7607" fill="white"/>
</clipPath>
<clipPath id="clip1_3031_32057">
<rect width="59.6319" height="92.7607" fill="white"/>
</clipPath>
</defs>
</svg>
