<svg width="170" height="49" viewBox="0 0 170 49" fill="none" xmlns="http://www.w3.org/2000/svg">
<path d="M149.307 48.2222L149.943 45.1214H150.5C150.553 45.4129 150.791 45.7309 151.215 46.0755C151.639 46.4465 152.09 46.632 152.567 46.632C154.21 46.632 155.376 46.0755 156.065 44.9623C156.755 43.8492 157.47 41.835 158.212 38.9196L152.17 23.2563C151.931 22.6998 151.679 22.3022 151.414 22.0637C151.149 21.7987 150.738 21.6661 150.182 21.6661H149.625V20.4735H157.417V21.6661H157.179C156.065 21.6661 155.509 21.9842 155.509 22.6203C155.509 22.7528 155.641 23.1768 155.906 23.8924L159.961 34.7057L164.414 23.4949C164.732 22.8588 164.891 22.4612 164.891 22.3022C164.891 22.0637 164.732 21.9047 164.414 21.8252C164.122 21.7191 163.513 21.6661 162.585 21.6661H162.267V20.4735H169.662V21.6661H169.264C168.363 21.6661 167.74 21.7987 167.396 22.0637C167.051 22.3287 166.746 22.8323 166.481 23.5744L158.451 43.6902C157.735 45.4394 156.874 46.738 155.867 47.5861C154.886 48.4342 153.548 48.8583 151.851 48.8583C151.215 48.8583 150.367 48.6463 149.307 48.2222Z" fill="#272727"/>
<path d="M146.614 8.30859C147.621 8.30859 148.761 8.62663 150.033 9.2627L149.715 12.8406L148.602 12.7611C148.602 12.231 148.337 11.6215 147.806 10.9324C147.276 10.2433 146.587 9.89878 145.739 9.89878C144.308 9.89878 143.235 10.6011 142.519 12.0058C141.804 13.4104 141.446 15.6764 141.446 18.8038C141.446 19.8639 141.976 20.394 143.036 20.394H146.932V22.0637H141.525V36.0573C141.525 36.4814 141.538 36.7994 141.565 37.0114C141.618 37.1969 141.777 37.3957 142.042 37.6077C142.307 37.7933 142.718 37.886 143.274 37.886H144.547V38.9991H135.96V37.886H136.437C137.02 37.886 137.444 37.7933 137.709 37.6077C138 37.3957 138.159 37.1969 138.186 37.0114C138.239 36.7994 138.265 36.4814 138.265 36.0573V23.4949C138.265 22.9913 138.173 22.6335 137.987 22.4215C137.802 22.183 137.417 22.0637 136.834 22.0637H135.96V20.394H138.265V18.6448C138.265 11.754 141.048 8.30859 146.614 8.30859Z" fill="#272727"/>
<path d="M126.409 11.3299C127.019 11.3299 127.483 11.5287 127.801 11.9263C128.145 12.3238 128.318 12.8406 128.318 13.4767C128.318 14.0863 128.066 14.6031 127.562 15.0271C127.059 15.4247 126.502 15.6234 125.893 15.6234C125.31 15.6234 124.846 15.4247 124.501 15.0271C124.183 14.6296 124.024 14.1393 124.024 13.5562C124.024 12.9466 124.276 12.4298 124.78 12.0058C125.283 11.5552 125.826 11.3299 126.409 11.3299ZM130.782 38.9991H122.752V37.886H123.388C124.104 37.886 124.554 37.7668 124.74 37.5282C124.952 37.2897 125.058 36.9054 125.058 36.3753V24.449C125.058 23.9454 124.886 23.5876 124.541 23.3756C124.223 23.1371 123.627 23.0178 122.752 23.0178V21.9047C123.282 21.9047 124.077 21.7191 125.137 21.3481C126.224 20.9506 127.046 20.5795 127.602 20.235L128.318 20.076V36.1368C128.318 36.5609 128.331 36.8657 128.357 37.0512C128.41 37.2367 128.569 37.4222 128.835 37.6077C129.1 37.7933 129.51 37.886 130.067 37.886H130.782V38.9991Z" fill="#272727"/>
<path d="M117.659 38.9991H110.741V37.886H110.901C111.192 37.886 111.431 37.7403 111.616 37.4487C111.828 37.1572 111.934 36.7994 111.934 36.3753V26.2777C111.934 25.2176 111.669 24.343 111.139 23.6539C110.635 22.9648 109.973 22.6203 109.151 22.6203C108.356 22.6203 107.614 22.8058 106.925 23.1768C106.262 23.5479 105.719 23.9984 105.295 24.5285C104.898 25.0585 104.54 25.6151 104.222 26.1982C103.692 27.2318 103.427 28.0004 103.427 28.5039V36.2958C103.427 37.356 104.01 37.886 105.176 37.886H105.891V38.9991H98.9741V37.886H99.2126C99.4512 37.886 99.6632 37.7403 99.8487 37.4487C100.061 37.1572 100.167 36.7994 100.167 36.3753V26.2777C100.167 25.2176 99.915 24.343 99.4114 23.6539C98.9079 22.9648 98.2188 22.6203 97.3442 22.6203C96.4961 22.6203 95.6877 22.8985 94.9192 23.4551C94.1506 24.0117 93.541 24.661 93.0904 25.4031C92.1893 26.9137 91.7388 27.9739 91.7388 28.5834V36.1368C91.7388 36.5609 91.752 36.8657 91.7785 37.0512C91.8315 37.2367 91.9906 37.4222 92.2556 37.6077C92.5206 37.7933 92.9314 37.886 93.488 37.886H94.2036V38.9991H86.1731V37.886H86.8092C87.5248 37.886 87.9753 37.7668 88.1609 37.5282C88.3729 37.2897 88.4789 36.9054 88.4789 36.3753V24.449C88.4789 23.9454 88.3066 23.5876 87.9621 23.3756C87.6441 23.1371 87.0477 23.0178 86.1731 23.0178V21.9047C86.7032 21.9047 87.4983 21.7191 88.5584 21.3481C89.645 20.9506 90.4666 20.5795 91.0232 20.235L91.7388 20.076V25.1645C92.5074 23.3623 93.4217 22.0372 94.4818 21.1891C95.5685 20.341 97.0394 19.9169 98.8946 19.9169C99.7427 19.9169 100.485 20.1025 101.121 20.4735C101.757 20.818 102.234 21.2818 102.552 21.8649C103.082 22.8985 103.374 23.9984 103.427 25.1645C104.036 23.3888 104.898 22.0769 106.011 21.2288C107.124 20.3542 108.621 19.9169 110.503 19.9169C111.457 19.9169 112.265 20.129 112.928 20.553C113.591 20.9771 114.068 21.5204 114.359 22.183C114.863 23.3226 115.114 24.449 115.114 25.5621V36.2958C115.114 36.6669 115.141 36.9452 115.194 37.1307C115.327 37.6342 115.883 37.886 116.864 37.886H117.659V38.9991Z" fill="#272727"/>
<path d="M70.7356 39.5557C68.4034 39.5557 66.4554 38.6811 64.8917 36.9319C63.328 35.1827 62.5462 33.142 62.5462 30.8097C62.5462 27.8414 63.6593 25.2838 65.8856 23.1371C68.1383 20.9903 70.5103 19.9169 73.0016 19.9169C75.4929 19.9169 77.4939 20.8048 79.0046 22.5805C80.5418 24.3297 81.3103 26.3572 81.3103 28.663C81.3103 31.5518 80.237 34.0961 78.0902 36.2958C75.97 38.4691 73.5184 39.5557 70.7356 39.5557ZM65.329 28.663C65.329 31.1277 66.0711 33.1817 67.5553 34.8249C69.0659 36.4416 70.7489 37.2499 72.6041 37.2499C74.4858 37.2499 75.9567 36.5476 77.0168 35.143C78.077 33.7383 78.607 32.2939 78.607 30.8097C78.607 28.5569 77.9047 26.5957 76.5 24.926C75.1219 23.2298 73.4389 22.3817 71.4512 22.3817C69.4635 22.3817 67.9395 23.0576 66.8794 24.4092C65.8458 25.7344 65.329 27.1523 65.329 28.663Z" fill="#272727"/>
<path d="M47.7447 39.5557C45.4125 39.5557 43.4645 38.6811 41.9008 36.9319C40.3371 35.1827 39.5553 33.142 39.5553 30.8097C39.5553 27.8414 40.6684 25.2838 42.8947 23.1371C45.1474 20.9903 47.5195 19.9169 50.0107 19.9169C52.502 19.9169 54.503 20.8048 56.0137 22.5805C57.5509 24.3297 58.3195 26.3572 58.3195 28.663C58.3195 31.5518 57.2461 34.0961 55.0993 36.2958C52.9791 38.4691 50.5275 39.5557 47.7447 39.5557ZM42.3381 28.663C42.3381 31.1277 43.0802 33.1817 44.5644 34.8249C46.075 36.4416 47.758 37.2499 49.6132 37.2499C51.4949 37.2499 52.9658 36.5476 54.026 35.143C55.0861 33.7383 55.6161 32.2939 55.6161 30.8097C55.6161 28.5569 54.9138 26.5957 53.5091 24.926C52.131 23.2298 50.448 22.3817 48.4603 22.3817C46.4726 22.3817 44.9487 23.0576 43.8885 24.4092C42.8549 25.7344 42.3381 27.1523 42.3381 28.663Z" fill="#272727"/>
<path d="M34.8515 38.9991H26.9006V37.886H27.4571C28.0402 37.886 28.4643 37.7668 28.7293 37.5282C28.9943 37.2632 29.1268 36.8259 29.1268 36.2163V12.7611C29.1268 12.2576 28.9546 11.8998 28.61 11.6877C28.2655 11.4492 27.6692 11.3299 26.8211 11.3299V10.2168C27.3511 10.2168 28.1595 10.071 29.2461 9.77951C30.3592 9.48798 31.1676 9.18319 31.6711 8.86516L32.3867 8.70614V36.1368C32.3867 36.5609 32.4 36.8657 32.4265 37.0512C32.4795 37.2367 32.6385 37.4222 32.9035 37.6077C33.1686 37.7933 33.5794 37.886 34.1359 37.886H34.8515V38.9991Z" fill="#272727"/>
<path d="M5.66696 11.1709L12.5048 10.7734C16.1092 10.7734 18.4017 11.648 19.3823 13.3972C19.7798 14.1128 19.9786 14.9874 19.9786 16.021C19.9786 19.0953 18.7065 21.5336 16.1622 23.3358C18.8655 23.8394 20.6147 24.8995 21.4098 26.5162C21.7808 27.3113 21.9663 28.2654 21.9663 29.3785C21.9663 32.0553 20.84 34.3346 18.5872 36.2163C16.3609 38.0715 13.7239 38.9991 10.676 38.9991H0.339844V37.8065H1.6915C2.48659 37.8065 2.99015 37.6607 3.20218 37.3692C3.4142 37.0777 3.52021 36.6404 3.52021 36.0573V14.1128C3.52021 13.4767 3.40095 13.0261 3.16242 12.7611C2.9504 12.4961 2.46009 12.3636 1.6915 12.3636H0.339844V11.1709H5.66696ZM9.96046 12.9201C8.90034 12.9201 7.91972 12.9996 7.01862 13.1587V23.5744H11.8687C13.3263 23.5744 14.5587 23.0443 15.5659 21.9842C16.5995 20.8976 17.1163 19.7314 17.1163 18.4858C17.1163 16.6836 16.4007 15.3054 14.9695 14.3513C13.5384 13.3972 11.8687 12.9201 9.96046 12.9201ZM10.676 25.2441H7.01862V36.5344C8.63531 37.0114 10.146 37.2499 11.5506 37.2499C13.6709 37.2499 15.3936 36.7331 16.7187 35.6995C18.0439 34.6394 18.7065 33.2215 18.7065 31.4458C18.7065 29.087 17.8584 27.4438 16.1622 26.5162C14.6515 25.6681 12.8228 25.2441 10.676 25.2441Z" fill="#272727"/>
</svg>
