<svg id="euhHZN7LpkG1" xmlns="http://www.w3.org/2000/svg" xmlns:xlink="http://www.w3.org/1999/xlink" viewBox="0 0 20 32" shape-rendering="geometricPrecision" text-rendering="geometricPrecision">
<style><![CDATA[
#euhHZN7LpkG2 {animation: euhHZN7LpkG2_s_do 3000ms linear infinite normal forwards}@keyframes euhHZN7LpkG2_s_do { 0% {stroke-dashoffset: 232.29} 100% {stroke-dashoffset: 0}}
]]></style>
<path id="euhHZN7LpkG2" d="M12.8298,25.0685c5.9734-4.5028,4.3962-8.3733,3.9467-8.899-.5562-.6476-2.1638.8457-2.9181,2.1867-.4536.866-.5493,1.8755-.2667,2.8114.1927.6639.2241,1.3642.0916,2.0427s-.4251,1.3156-.8535,1.8582Zm0,0c-3.1771,2.7886-2.499,5.8438-2.499,5.8438s-.70096-1.9276-.1752-3.2761c0,0,.7619-3.4972-2.33147-4.9981-.61124-.3153-1.27475-.5167-1.9581-.5943-3.45905-.8915-3.70286-2.9562-3.80952-3.4972-.11244-.6313-.37361-1.2268-.76191-1.7371-.662854-.7619,0-.6705,0-.6705c1.05162-.0157,2.09328.2056,3.04762.6476c2.16381,1.0667,1.96572,3.4896,1.97334,3.7029c0,.6324.09904,1.3181,1.88952,2.3924c2.74282,1.6381,1.85902,4.9447,1.85902,4.9447s-.5714,1.4629.5638,3.9086c0,0-1.26472-2.4533-.3885-4.3657.6114-1.0511.8453-2.2797.6628-3.4819-.2057-2.0267-.8838-2.0648-.2514-4.4953.412-1.5054.4694-3.0858.1676-4.6171-.0838-.6019-.4419-2.4.2286-3.2381.1152-.1428.2678-.2507.4408-.3119.173-.0611.3596-.0729.539-.0342s.3444.1265.4768.2535c.1323.127.2268.2883.2729.4659.1676.5181,1.2724,2.7277,2.4305,2.8648.3603.0401.7242-.0321,1.042-.2067s.5738-.4429.7332-.7685c.1071-.2601.2675-.4948.4709-.6891.2035-.1942.4453-.3436.7101-.4386.7619-.2666.6933-.9752.0914-1.1809-1.1455-.2739-2.2426-.7209-3.2533-1.3257-1.0895-.76193-3.8096-1.66097-4.2515.3352-.2057,1.9505,1.44,2.4838,2.1715,1.1886.7314-1.2952,2.2476-1.3486,3.8095-.8762s2.6895-.2286,1.981-2.09524c-.2989-.58224-.4972-1.21076-.5867-1.85905-.0229-.19998-.0229-.40192,0-.6019.099-.70821-.0404-1.42923-.3962-2.04953-.5867-.83047-2.0495-1.37905-3.7562.28953l-.2057.16762c-.9219.62476-1.2419.61714-1.44,2.16381-.1143.67047-.7162.51809-1.0286,1.28762-.2078,1.06084-.277,2.14424-.2057,3.22284c0,0,.5562-2.11808,2.2248-2.45332c1.6685-.33524,1.1123-1.21905.5028-1.52381-.6095-.17524-1.76-1.08191-.8076-1.80572c1.1124-.63238,2.2857-1.52381,1.6533-2.41523-.0661-.14761-.1614-.28027-.2803-.38998s-.2586-.19418-.411-.2483-.3143-.07678-.4757-.0666-.319.05298-.4634.12583c-.5105.1219-1.1048-.76191-1.6534-1.29524-.7619-.685714-1.3181.12952-1.63807.45714s-1.18095.67048-1.60762,1.28762.20571,1.13524,1.09714,1.4781.64762,1.6.22857,2.05714-1.52381,1.60762-.33523,2.20952s1.65331,1.25715,1.34091,1.34855-1.0971-.70093-.68568-1.79807s1.11998-2.42286-.46476-3.13905-1.90476-2.45333-3.32952-2.28571-.77714.99047-1.48572,1.95048-1.97333,1.21142-1.04381,2.39238c.18949.23556.41592.43883.67048.6019.80762.5181,1.04381.76191,1.17333,1.32572s1.34858,1.71425,3.44381,1.52385l2.20957.7619-2.28576-.8762c-.53482-.1962-1.04595-.4518-1.52381-.76194C6.25779,9.165,5.24074,8.7332,4.16699,8.5352C2.2927,8.27615,2.7346,9.29711,3.03937,9.66282c.29307.19095.50157.48718.5824.82758s.0278.6987-.14812,1.001c-.54857,1.1048-.2819,1.7219.31238,1.7981.31735.0294.62084.144.87836.3318s.45948.4417.5845.7349c.48762.7619,1.46286.7238,2.28572.1066.82285-.6171,2.69709-1.9657,3.00189-2.1866s.4724-.6934.1372-.5639-2.32386,1.8515-2.46862,2.7353c-.29714,1.8133,2.28572,1.8133,2.28572,1.8133c1.1826.0576,2.3635-.1452,3.459-.5943c1.3943-.7162.16-2.2323.16-2.2323s-1.6076-1.8515-2.8647-1.8515" fill="none" stroke="#ffc1b4" stroke-width="0.203175" stroke-linecap="round" stroke-linejoin="round" stroke-dashoffset="232.29" stroke-dasharray="232.29"/></svg>
