<svg width="36" height="64" viewBox="0 0 60 93" fill="none" xmlns="http://www.w3.org/2000/svg">
<g clipPath="url(#clip0_3031_32063)">
<path d="M59.2341 41.5655C58.6254 37.1483 56.7106 33.0138 53.7356 29.6925C50.7606 26.3711 46.861 24.0145 42.5372 22.925C35.7765 21.2021 28.6917 21.2021 21.931 22.925C15.7558 24.5163 10.177 27.8697 5.87459 32.5766C3.17768 35.3563 1.265 38.8007 0.331035 42.5594C-0.721038 48.2901 0.32146 54.208 3.26846 59.2342C5.37374 62.3879 8.22022 64.9772 11.5585 66.7753C14.8969 68.5735 18.6252 69.5256 22.4169 69.5483C29.9482 69.8134 43.5089 65.5287 46.9543 63.6514C57.7543 57.7766 60.2059 48.9422 59.2341 41.5655Z" fill="#FFC1B4"/>
<path d="M35.335 71.9138C52.6503 58.861 48.0786 47.6414 46.7755 46.1174C45.1632 44.2401 40.5031 48.569 38.3166 52.4561C37.0018 54.9666 36.7242 57.8928 37.5436 60.6058C38.1021 62.5304 38.193 64.5605 37.8089 66.5273C37.4247 68.4941 36.5766 70.3407 35.335 71.9138ZM35.335 71.9138C26.1252 79.9972 28.0908 88.8536 28.0908 88.8536C28.0908 88.8536 26.0589 83.2659 27.5828 79.3567C27.5828 79.3567 29.7914 69.2193 20.8246 64.8684C19.0527 63.9545 17.1294 63.3708 15.1485 63.1457C5.1215 60.5616 4.41475 54.5763 4.10555 53.0082C3.77963 51.1781 3.02254 49.452 1.89696 47.9726C-0.024516 45.7641 1.89696 46.0291 1.89696 46.0291C4.94536 45.9834 7.96489 46.6251 10.7313 47.9064C17.0037 50.9984 16.4295 58.0217 16.4516 58.6401C16.4516 60.4733 16.7387 62.461 21.9289 65.5751C29.8798 70.3236 27.3178 79.9088 27.3178 79.9088C27.3178 79.9088 25.6614 84.1493 28.9522 91.2389C28.9522 91.2389 25.2859 84.1273 27.8258 78.5837C29.5982 75.5367 30.2762 71.9755 29.7473 68.4904C29.1509 62.6156 27.1853 62.5052 29.0184 55.4598C30.2128 51.096 30.3791 46.5146 29.5043 42.0757C29.2614 40.3309 28.2233 35.1187 30.1669 32.6892C30.5009 32.2753 30.9433 31.9623 31.4448 31.7852C31.9463 31.608 32.4871 31.5736 33.007 31.6859C33.5269 31.7981 34.0054 32.0525 34.3892 32.4207C34.7729 32.789 35.0468 33.2566 35.1804 33.7714C35.6663 35.2733 38.8687 41.6782 42.2258 42.0757C43.2703 42.1919 44.3251 41.9827 45.2462 41.4767C46.1673 40.9707 46.9097 40.1926 47.3718 39.2487C47.6822 38.4948 48.1472 37.8144 48.7369 37.2514C49.3265 36.6883 50.0277 36.2552 50.7951 35.98C53.0037 35.207 52.8049 33.153 51.0602 32.5567C47.7395 31.7627 44.5593 30.4669 41.6295 28.7138C38.4712 26.5052 30.5865 23.899 29.3055 29.6855C28.7092 35.3395 33.4798 36.8855 35.6 33.1309C37.7203 29.3763 42.1154 29.2217 46.643 30.5911C51.1706 31.9604 54.4393 29.9285 52.3853 24.5174C51.5191 22.8296 50.9442 21.0077 50.6847 19.1285C50.6185 18.5488 50.6185 17.9634 50.6847 17.3837C50.9716 15.3308 50.5676 13.2407 49.5362 11.4426C47.8356 9.03522 43.5951 7.44504 38.6479 12.2818L38.0516 12.7677C35.3792 14.5788 34.4516 14.5567 33.8773 19.0401C33.546 20.9837 31.8013 20.542 30.8957 22.7726C30.2932 25.8478 30.0927 28.9882 30.2994 32.115C30.2994 32.115 31.9117 25.9751 36.7485 25.0033C41.5853 24.0315 39.973 21.4696 38.2062 20.5861C36.4393 20.0782 33.1043 17.4499 35.8651 15.3518C39.0896 13.5187 42.4908 10.9346 40.6577 8.35056C40.4661 7.92269 40.1897 7.53812 39.8452 7.22011C39.5007 6.90209 39.0953 6.65723 38.6535 6.50034C38.2117 6.34344 37.7427 6.27776 37.2748 6.30727C36.8069 6.33678 36.3499 6.46087 35.9313 6.67203C34.4516 7.02541 32.7289 4.46344 31.1387 2.91743C28.9301 0.929701 27.3178 3.29289 26.3902 4.24258C25.4626 5.19228 22.9669 6.18614 21.7301 7.9751C20.4933 9.76406 22.3264 11.2659 24.9105 12.2598C27.4945 13.2536 26.7878 16.8978 25.573 18.223C24.3583 19.5481 21.1559 22.8831 24.6013 24.6279C28.0467 26.3726 29.3939 28.272 28.4884 28.5371C27.5828 28.8021 25.308 26.5052 26.5006 23.3248C27.6933 20.1444 29.7473 16.3015 25.1534 14.2254C20.5595 12.1493 19.6319 7.11375 15.5019 7.59964C11.3718 8.08553 13.2491 10.4708 11.1951 13.2536C9.14113 16.0365 5.47487 16.7653 8.16935 20.1886C8.71862 20.8714 9.37499 21.4607 10.1129 21.9334C12.454 23.4352 13.1387 24.142 13.5141 25.7763C13.8896 27.4107 17.4233 30.7457 23.497 30.1935L29.9019 32.4021L23.2761 29.8622C21.7258 29.2935 20.2441 28.5526 18.8589 27.6536C16.2841 25.813 13.3359 24.5613 10.2233 23.9874C4.79021 23.2365 6.07119 26.196 6.95463 27.2561C7.80419 27.8096 8.40859 28.6684 8.64289 29.6549C8.87719 30.6415 8.72347 31.6803 8.21352 32.5567C6.62334 35.7592 7.39634 37.5481 9.11904 37.769C10.039 37.8542 10.9187 38.1866 11.6652 38.7309C12.4117 39.2752 12.9971 40.0112 13.3595 40.861C14.773 43.0696 17.6 42.9591 19.9853 41.1702C22.3706 39.3812 27.8037 35.472 28.6871 34.8315C29.5706 34.1911 30.0565 32.8217 29.0847 33.1972C28.1129 33.5726 22.3485 38.5641 21.9289 41.126C21.0675 46.3825 28.5546 46.3825 28.5546 46.3825C31.9828 46.5495 35.4058 45.9614 38.5816 44.6598C42.6233 42.5837 39.0454 38.1886 39.0454 38.1886C39.0454 38.1886 34.3853 32.8217 30.7411 32.8217" stroke="#272727" stroke-width="0.588957" stroke-linecap="round" stroke-linejoin="round"/>
</g>
<defs>
<clipPath id="clip0_3031_32063">
<rect width="59.6319" height="92.7607" fill="white"/>
</clipPath>
</defs>
</svg>
